# xmcd
#
# Track frame offsets: 
#        150
#        11653
#        27422
#        47133
#        61080
#        73620
#        88558
#        105824
#        119473
#        139017
#        157700
#
# Disc length: 2285 seconds
#
# Revision: 0
# Processed by: cddbd v1.5.2PL0 Copyright (c) Steve Scherf et al.
# Submitted via: ExactAudioCopy v0.95b4
#
DISCID=8108eb0b
DTITLE=James Zackary - My Fathers Son
DYEAR=1997
DGENRE=Country
TTITLE0=Neon Cowboy
TTITLE1=I'm A Better Man Than That
TTITLE2=My Father's Son
TTITLE3=She's My Woman
TTITLE4=She Loves Me Now
TTITLE5=My Love's Bigger Than The Sky
TTITLE6=Mercy, Mercy Me
TTITLE7=Goodbye Baby, Goodbye
TTITLE8=You'll Always Be Special
TTITLE9=Your Love
TTITLE10=When I Win The Lotto
EXTD=
EXTT0=
EXTT1=
EXTT2=
EXTT3=
EXTT4=
EXTT5=
EXTT6=
EXTT7=
EXTT8=
EXTT9=
EXTT10=
PLAYORDER=
